<?xml version="1.0" standalone="no"?><!DOCTYPE svg PUBLIC "-//W3C//DTD SVG 1.1//EN" "http://www.w3.org/Graphics/SVG/1.1/DTD/svg11.dtd"><svg class="icon" height="512" viewBox="0 0 1024 1024" version="1.1" xmlns="http://www.w3.org/2000/svg"><path d="M500.501604 415.513461v85.845166h24.568001c33.281071 0 49.993026-14.426559 49.993026-43.422513 0-28.281769-16.42628-42.422653-49.421677-42.422653H500.501604z m330.668155-111.555866v-239.966522c0-35.280792-28.71028-63.991073-63.991073-63.991073H255.392942c-35.280792 0-63.991073 28.567443-63.991073 63.991073v239.966522H71.989957v399.944204h119.411912v255.964291c0 35.280792 28.71028 63.991073 63.991073 63.991073h511.928581c35.280792 0 63.991073-28.71028 63.991073-63.991073V703.901799h118.126377v-399.944204h-118.269214zM767.178686 79.988841v223.968754H255.392942V79.988841h511.785744z m-132.410099 375.661877c0 27.281908-9.998605 49.136002-29.995815 65.562282s-44.993723 24.282327-74.989539 23.568141H500.501604v92.84419h-56.706375V371.519598h91.558656c66.276468 0 99.414702 27.996094 99.414702 84.13112z m-410.514158 120.983122l-19.568699 60.991491H143.12289L240.537871 371.519598h66.70498l95.558098 266.105733h-61.848515l-19.99721-60.991491h-96.700795z m286.959966 415.227786c-17.711815 0-31.995536-14.283722-31.995536-31.995536s14.283722-31.995536 31.995536-31.995536 31.995536 14.283722 31.995537 31.995536c0 17.568978-14.283722 31.995536-31.995537 31.995536z m255.964291-95.986609H255.392942V703.901799h511.785744v191.973218z m61.420003-374.662017c-19.99721 16.42628-44.993723 24.282327-74.989538 23.568141h-29.138793v92.84419h-56.706374V371.519598h91.558655c66.276468 0 99.271865 28.138932 99.271865 84.13112 0 27.281908-9.998605 49.136002-29.995815 65.562282z m-79.131818-105.699539h-25.13935v85.845166h24.568001c33.281071 0 49.993026-14.426559 49.993026-43.422513 0.142837-28.281769-16.42628-42.422653-49.421677-42.422653z m-476.219277 1.856884h-1.57121c-0.714186 7.71321-2.285395 15.283582-4.57079 22.56828l-30.424327 92.987027H307.671363l-30.28149-92.272841c-1.999721-5.999163-3.428093-13.712373-4.142279-23.282466z" fill="" /></svg>